<svg width="21" height="17" viewBox="0 0 21 17" fill="none" xmlns="http://www.w3.org/2000/svg">
<path d="M19.875 3.33516L16.875 5.0625V1.5C16.875 0.672656 16.2023 0 15.375 0H1.5C0.672656 0 0 0.672656 0 1.5V15C0 15.8273 0.672656 16.5 1.5 16.5H15.375C16.2023 16.5 16.875 15.8273 16.875 15V11.4375L19.875 13.1648C20.3742 13.4531 21 13.0922 21 12.518V3.98438C21 3.40781 20.3742 3.04687 19.875 3.33516ZM6.1875 4.5C6.1875 4.60313 6.10313 4.6875 6 4.6875H3.375C3.27187 4.6875 3.1875 4.60313 3.1875 4.5V3.375C3.1875 3.27187 3.27187 3.1875 3.375 3.1875H6C6.10313 3.1875 6.1875 3.27187 6.1875 3.375V4.5ZM19.3125 10.8984L16.875 9.49688V7.00547L19.3125 5.60156V10.8984Z" fill="white"/>
</svg>
