<svg width="43" height="43" viewBox="0 0 43 43" fill="none" xmlns="http://www.w3.org/2000/svg">
<mask id="path-1-inside-1" fill="white">
<path d="M41.1343 14.5741C42.5047 18.7918 42.5047 23.3351 41.1343 27.5528C39.7639 31.7705 37.0934 35.4461 33.5056 38.0528L21.1621 21.0635L41.1343 14.5741Z"/>
</mask>
<path d="M41.1343 14.5741C42.5047 18.7918 42.5047 23.3351 41.1343 27.5528C39.7639 31.7705 37.0934 35.4461 33.5056 38.0528L21.1621 21.0635L41.1343 14.5741Z" stroke="#00B3E3" stroke-width="26" mask="url(#path-1-inside-1)"/>
<mask id="path-2-inside-2" fill="white">
<path d="M33.5056 38.0528C29.9178 40.6595 25.5969 42.0635 21.1621 42.0635C16.7273 42.0635 12.4064 40.6595 8.81862 38.0528L21.1621 21.0635L33.5056 38.0528Z"/>
</mask>
<path d="M33.5056 38.0528C29.9178 40.6595 25.5969 42.0635 21.1621 42.0635C16.7273 42.0635 12.4064 40.6595 8.81862 38.0528L21.1621 21.0635L33.5056 38.0528Z" stroke="#FF6B00" stroke-width="26" mask="url(#path-2-inside-2)"/>
<mask id="path-3-inside-3" fill="white">
<path d="M8.81862 38.0528C5.23082 35.4461 2.56034 31.7705 1.18992 27.5528C-0.180495 23.3351 -0.180495 18.7918 1.18992 14.5741L21.1621 21.0635L8.81862 38.0528Z"/>
</mask>
<path d="M8.81862 38.0528C5.23082 35.4461 2.56034 31.7705 1.18992 27.5528C-0.180495 23.3351 -0.180495 18.7918 1.18992 14.5741L21.1621 21.0635L8.81862 38.0528Z" stroke="#22B573" stroke-width="26" mask="url(#path-3-inside-3)"/>
<mask id="path-4-inside-4" fill="white">
<path d="M1.18992 14.5741C2.56034 10.3564 5.23082 6.68081 8.81862 4.07412C12.4064 1.46743 16.7273 0.0634766 21.1621 0.0634766L21.1621 21.0635L1.18992 14.5741Z"/>
</mask>
<path d="M1.18992 14.5741C2.56034 10.3564 5.23082 6.68081 8.81862 4.07412C12.4064 1.46743 16.7273 0.0634766 21.1621 0.0634766L21.1621 21.0635L1.18992 14.5741Z" stroke="#00299F" stroke-width="26" mask="url(#path-4-inside-4)"/>
<mask id="path-5-inside-5" fill="white">
<path d="M21.1621 0.0634766C25.5969 0.0634766 29.9178 1.46743 33.5056 4.07412C37.0934 6.68081 39.7639 10.3564 41.1343 14.5741L21.1621 21.0635V0.0634766Z"/>
</mask>
<path d="M21.1621 0.0634766C25.5969 0.0634766 29.9178 1.46743 33.5056 4.07412C37.0934 6.68081 39.7639 10.3564 41.1343 14.5741L21.1621 21.0635V0.0634766Z" stroke="#FF4338" stroke-width="26" mask="url(#path-5-inside-5)"/>
<circle cx="21.2031" cy="21.1045" r="19.9746" fill="white"/>
<path d="M26.4737 20.0527C25.7907 20.0523 25.1144 20.186 24.4829 20.4461V25.2882C24.4762 25.0226 24.5227 24.7583 24.6198 24.5109C24.7168 24.2635 24.8624 24.038 25.048 23.8477C25.2336 23.6574 25.4554 23.5062 25.7004 23.403C25.9453 23.2997 26.2085 23.2465 26.4743 23.2465C26.7401 23.2465 27.0033 23.2997 27.2482 23.403C27.4932 23.5062 27.715 23.6574 27.9006 23.8477C28.0862 24.038 28.2318 24.2635 28.3288 24.5109C28.4259 24.7583 28.4724 25.0226 28.4657 25.2882V31.8585H31.7111V25.2882C31.7111 23.8993 31.1592 22.5673 30.1767 21.5852C29.1943 20.6032 27.8618 20.0514 26.4724 20.0514" fill="#DA3AB3"/>
<path d="M24.4817 13.0941H21.2375V25.2882C21.2384 24.2508 21.5471 23.237 22.1246 22.3751C22.7021 21.5132 23.5224 20.8419 24.4817 20.4461V13.0941Z" fill="#00B3E3"/>
<path d="M24.4817 20.4462C23.5219 20.8412 22.7011 21.5124 22.1235 22.3745C21.5459 23.2366 21.2375 24.2507 21.2375 25.2883V31.8586H24.4817V20.4462Z" fill="#00299F"/>
<path d="M15.8353 16.2934H12.5898V31.8122H15.8353V16.2934Z" fill="#FF6B00"/>
<path d="M35.1074 10.2354L7.2168 13.0045L8.40382 18.7445L35.1074 10.2354Z" fill="#22B573"/>
</svg>
