<svg width="411" height="34" viewBox="0 0 411 34" fill="none" xmlns="http://www.w3.org/2000/svg">
<rect width="411" height="34" fill="#E6EFFF"/>
<path d="M386 17.2542C386 23.3509 382.293 29.5829 376.747 33.9518C361.353 33.9759 376.747 33.9518 361.353 33.9759C345.958 34 78.1107 33.9759 62.7164 34C47.3207 33.949 52.8748 33.949 47.3207 33.949C35.0058 33.9482 47.3207 33.949 35.0058 33.9482C28.9061 29.4851 25 23.6832 25 17.2542C25 11.1653 28.4057 4.37373 33.939 0.014571C38.6135 -0.0411261 41.3324 0.0859129 47.3207 0.0145867C52.8748 -0.0104542 56.7514 0.014571 62.7143 0.014571C68.6772 0.014571 358.874 0.014651 364.428 0.014651C376.866 0.014487 364.428 0.014651 376.866 0.014571C382.954 4.46841 386 10.8324 386 17.2542Z" fill="#CDDFFF"/>
<path d="M344 17.2542C344 23.3509 341.156 29.5829 336.9 33.9518C325.088 33.9759 336.9 33.9518 325.088 33.9759C313.276 34 107.753 33.9759 95.9403 34C84.127 33.949 88.3887 33.949 84.127 33.949C74.6776 33.9482 84.127 33.949 74.6776 33.9482C69.9972 29.4851 67 23.6832 67 17.2542C67 11.1653 69.6132 4.37373 73.859 0.014571C77.4458 -0.0411261 79.5321 0.0859129 84.127 0.0145867C88.3887 -0.0104542 91.3632 0.014571 95.9387 0.014571C100.514 0.014571 323.186 0.014651 327.448 0.014651C336.992 0.014487 327.448 0.014651 336.992 0.014571C341.663 4.46841 344 10.8324 344 17.2542Z" fill="#B7D0FE"/>
</svg>
